<?xml version="1.0" encoding="utf-8"?>
<!-- Generator: Adobe Illustrator 25.4.0, SVG Export Plug-In . SVG Version: 6.00 Build 0)  -->
<svg version="1.1" id="Layer_1" xmlns="http://www.w3.org/2000/svg" xmlns:xlink="http://www.w3.org/1999/xlink" x="0px" y="0px"
	 viewBox="0 0 29 55" style="enable-background:new 0 0 29 55;" xml:space="preserve">
<style type="text/css">
	.st0{fill:#FFFFFF;}
</style>
<g>
	<path class="st0" d="M27.5,25.7c-3.4-2.5-5.5,0.9-5.9,1.5c-0.4-0.6-2.5-4-5.9-1.5c-1.1,0.8-3,4.6,1.1,8c1,0.8,3,2.2,4.1,3.3
		c0.2,0.2,0.4,0.4,0.6,0.7c0,0,0,0,0,0.1c0,0,0,0,0-0.1c0.2-0.3,0.4-0.5,0.6-0.7c1.1-1.1,3.1-2.5,4.1-3.3
		C30.5,30.3,28.6,26.6,27.5,25.7z"/>
	<path class="st0" d="M27.5,41.8c-3.4-2.5-5.5,0.9-5.9,1.5c-0.4-0.6-2.5-4-5.9-1.5c-1.1,0.8-3,4.6,1.1,8c1,0.8,3,2.2,4.1,3.3
		c0.2,0.2,0.4,0.4,0.6,0.7c0,0,0,0,0,0.1c0,0,0,0,0-0.1c0.2-0.3,0.4-0.5,0.6-0.7c1.1-1.1,3.1-2.5,4.1-3.3
		C30.5,46.4,28.6,42.7,27.5,41.8z"/>
	<path class="st0" d="M27.5,9.3c-3.4-2.5-5.5,0.9-5.9,1.5c-0.4-0.6-2.5-4-5.9-1.5c-1.1,0.8-3,4.6,1.1,8c1,0.8,3,2.2,4.1,3.3
		c0.2,0.2,0.4,0.4,0.6,0.7c0,0,0,0,0,0.1c0,0,0,0,0-0.1c0.2-0.3,0.4-0.5,0.6-0.7c1.1-1.1,3.1-2.5,4.1-3.3
		C30.5,13.8,28.6,10.1,27.5,9.3z"/>
	<path class="st0" d="M13.5,18c-3.6-2.7-5.8,0.9-6.2,1.6c-0.4-0.7-2.6-4.3-6.2-1.6c-1.2,0.9-3.2,4.8,1.2,8.4c1,0.9,3.2,2.4,4.3,3.5
		c0.2,0.2,0.5,0.5,0.7,0.7c0,0,0,0,0,0.1c0,0,0,0,0-0.1c0.2-0.3,0.4-0.5,0.7-0.7c1.1-1.1,3.3-2.6,4.3-3.5
		C16.7,22.8,14.7,18.9,13.5,18z"/>
	<path class="st0" d="M13.6,34.3c-3.4-2.5-5.5,0.9-5.9,1.5c-0.4-0.6-2.5-4-5.9-1.5c-1.1,0.8-3,4.6,1.1,8c1,0.8,3,2.2,4.1,3.3
		c0.2,0.2,0.4,0.4,0.6,0.7c0,0,0,0,0,0.1c0,0,0,0,0-0.1c0.2-0.3,0.4-0.5,0.6-0.7c1.1-1.1,3.1-2.5,4.1-3.3
		C16.6,38.8,14.7,35.1,13.6,34.3z"/>
	<path class="st0" d="M13.6,1.7c-3.4-2.5-5.5,0.9-5.9,1.5c-0.4-0.6-2.5-4-5.9-1.5c-1.1,0.8-3,4.6,1.1,8c1,0.8,3,2.2,4.1,3.3
		c0.2,0.2,0.4,0.4,0.6,0.7c0,0,0,0,0,0.1c0,0,0,0,0-0.1c0.2-0.3,0.4-0.5,0.6-0.7c1.1-1.1,3.1-2.5,4.1-3.3
		C16.6,6.3,14.7,2.5,13.6,1.7z"/>
</g>
</svg>
