<?xml version="1.0" encoding="utf-8"?>
<!-- Generator: Adobe Illustrator 25.4.0, SVG Export Plug-In . SVG Version: 6.00 Build 0)  -->
<svg version="1.1" id="Layer_1" xmlns="http://www.w3.org/2000/svg" xmlns:xlink="http://www.w3.org/1999/xlink" x="0px" y="0px"
	 viewBox="0 0 29 55" style="enable-background:new 0 0 29 55;" xml:space="preserve">
<style type="text/css">
	.st0{fill:#FFFFFF;}
</style>
<g>
	<path class="st0" d="M27.2,25.9c-3.3-2.4-5.3,0.8-5.7,1.4c-0.3-0.6-2.4-3.9-5.7-1.4c-1.1,0.8-2.9,4.4,1.1,7.7c1,0.8,2.9,2.2,4,3.2
		c0.2,0.2,0.4,0.4,0.6,0.7c0,0,0,0,0,0.1c0,0,0,0,0-0.1c0.2-0.3,0.4-0.5,0.6-0.7c1-1,3-2.4,4-3.2C30.1,30.3,28.3,26.8,27.2,25.9z"/>
	<path class="st0" d="M27.2,41.4c-3.3-2.4-5.3,0.8-5.7,1.4c-0.3-0.6-2.4-3.9-5.7-1.4c-1.1,0.8-2.9,4.4,1.1,7.7c1,0.8,2.9,2.2,4,3.2
		c0.2,0.2,0.4,0.4,0.6,0.7c0,0,0,0,0,0.1c0,0,0,0,0-0.1c0.2-0.3,0.4-0.5,0.6-0.7c1-1,3-2.4,4-3.2C30.1,45.8,28.3,42.3,27.2,41.4z"/>
	<path class="st0" d="M27.2,10.1c-3.3-2.4-5.3,0.8-5.7,1.4c-0.3-0.6-2.4-3.9-5.7-1.4c-1.1,0.8-2.9,4.4,1.1,7.7c1,0.8,2.9,2.2,4,3.2
		c0.2,0.2,0.4,0.4,0.6,0.7c0,0,0,0,0,0.1c0,0,0,0,0-0.1c0.2-0.3,0.4-0.5,0.6-0.7c1-1,3-2.4,4-3.2C30.1,14.5,28.3,10.9,27.2,10.1z"/>
	<path class="st0" d="M13.8,18.5c-3.5-2.6-5.6,0.9-6,1.5c-0.4-0.7-2.5-4.1-6-1.5c-1.2,0.9-3,4.6,1.1,8.1c1,0.8,3.1,2.3,4.2,3.4
		c0.2,0.2,0.4,0.4,0.6,0.7c0,0,0,0,0,0.1c0,0,0,0,0-0.1c0.2-0.3,0.4-0.5,0.6-0.7c1.1-1.1,3.2-2.5,4.2-3.4
		C16.9,23.2,15,19.4,13.8,18.5z"/>
	<path class="st0" d="M13.9,34.2c-3.3-2.4-5.3,0.8-5.7,1.4c-0.3-0.6-2.4-3.9-5.7-1.4c-1.1,0.8-2.9,4.4,1.1,7.7c1,0.8,2.9,2.2,4,3.2
		c0.2,0.2,0.4,0.4,0.6,0.7c0,0,0,0,0,0.1c0,0,0,0,0-0.1c0.2-0.3,0.4-0.5,0.6-0.7c1-1,3-2.4,4-3.2C16.8,38.6,15,35,13.9,34.2z"/>
	<path class="st0" d="M13.9,2.8c-3.3-2.4-5.3,0.8-5.7,1.4C7.9,3.7,5.8,0.4,2.5,2.8c-1.1,0.8-2.9,4.4,1.1,7.7c1,0.8,2.9,2.2,4,3.2
		c0.2,0.2,0.4,0.4,0.6,0.7c0,0,0,0,0,0.1c0,0,0,0,0-0.1c0.2-0.3,0.4-0.5,0.6-0.7c1-1,3-2.4,4-3.2C16.8,7.2,15,3.7,13.9,2.8z"/>
</g>
</svg>
